<mxfile host="app.diagrams.net" modified="2024-04-06T18:03:38.887Z" agent="Mozilla/5.0 (X11; Linux x86_64; rv:109.0) Gecko/20100101 Firefox/115.0" etag="jswXDZ5IPOhAA_yYFJrM" version="24.2.2" type="device">
  <diagram name="Page-1" id="7e0a89b8-554c-2b80-1dc8-d5c74ca68de4">
    <mxGraphModel dx="1395" dy="596" grid="1" gridSize="10" guides="1" tooltips="1" connect="1" arrows="1" fold="1" page="1" pageScale="1" pageWidth="1100" pageHeight="850" background="none" math="0" shadow="0">
      <root>
        <mxCell id="0" />
        <mxCell id="1" parent="0" />
        <mxCell id="qvpBIrmDKc72IDKi6VH0-1" value="" style="html=1;shape=mxgraph.electrical.electro-mechanical.pushbutton;aspect=fixed;elSwitchState=off;" parent="1" vertex="1">
          <mxGeometry x="240" y="89.99999999999997" width="95" height="25.34" as="geometry" />
        </mxCell>
        <mxCell id="qvpBIrmDKc72IDKi6VH0-2" value="" style="pointerEvents=1;fillColor=strokeColor;verticalLabelPosition=bottom;shadow=0;dashed=0;align=center;html=1;verticalAlign=top;shape=mxgraph.electrical.diodes.diode;rotation=0;direction=east;" parent="1" vertex="1">
          <mxGeometry x="320" y="100" width="40" height="20" as="geometry" />
        </mxCell>
        <mxCell id="qvpBIrmDKc72IDKi6VH0-11" value="" style="endArrow=none;html=1;rounded=0;exitDx=0;exitDy=0;exitPerimeter=0;" parent="1" source="qvpBIrmDKc72IDKi6VH0-14" edge="1">
          <mxGeometry width="50" height="50" relative="1" as="geometry">
            <mxPoint x="360" y="690" as="sourcePoint" />
            <mxPoint x="360" y="50" as="targetPoint" />
          </mxGeometry>
        </mxCell>
        <mxCell id="qvpBIrmDKc72IDKi6VH0-82" value="GPIO3" style="rounded=1;whiteSpace=wrap;html=1;" parent="1" vertex="1">
          <mxGeometry x="320" y="30" width="80" height="20" as="geometry" />
        </mxCell>
        <mxCell id="qvpBIrmDKc72IDKi6VH0-84" value="GPIO5" style="rounded=1;whiteSpace=wrap;html=1;" parent="1" vertex="1">
          <mxGeometry x="640" y="30" width="80" height="20" as="geometry" />
        </mxCell>
        <mxCell id="qvpBIrmDKc72IDKi6VH0-87" value="" style="endArrow=none;html=1;rounded=0;exitX=1;exitY=0.5;exitDx=0;exitDy=0;" parent="1" source="qvpBIrmDKc72IDKi6VH0-79" edge="1">
          <mxGeometry width="50" height="50" relative="1" as="geometry">
            <mxPoint x="160" y="150" as="sourcePoint" />
            <mxPoint x="260" y="150" as="targetPoint" />
          </mxGeometry>
        </mxCell>
        <mxCell id="qvpBIrmDKc72IDKi6VH0-86" value="" style="shape=waypoint;sketch=0;fillStyle=solid;size=6;pointerEvents=1;points=[];fillColor=none;resizable=0;rotatable=0;perimeter=centerPerimeter;snapToPoint=1;" parent="1" vertex="1">
          <mxGeometry x="230.00000000000003" y="140" width="20" height="20" as="geometry" />
        </mxCell>
        <mxCell id="KQdDB6aIJ-EnSBIDRSkw-136" value="" style="endArrow=none;html=1;rounded=0;exitDx=0;exitDy=0;" parent="1" edge="1">
          <mxGeometry width="50" height="50" relative="1" as="geometry">
            <mxPoint x="670" y="640" as="sourcePoint" />
            <mxPoint x="670" y="640" as="targetPoint" />
          </mxGeometry>
        </mxCell>
        <mxCell id="KQdDB6aIJ-EnSBIDRSkw-149" value="" style="endArrow=none;html=1;rounded=0;exitDx=0;exitDy=0;" parent="1" edge="1">
          <mxGeometry width="50" height="50" relative="1" as="geometry">
            <mxPoint x="910" y="640" as="sourcePoint" />
            <mxPoint x="910" y="640" as="targetPoint" />
          </mxGeometry>
        </mxCell>
        <mxCell id="qvpBIrmDKc72IDKi6VH0-14" value="" style="shape=waypoint;sketch=0;fillStyle=solid;size=6;pointerEvents=1;points=[];fillColor=none;resizable=0;rotatable=0;perimeter=centerPerimeter;snapToPoint=1;" parent="1" vertex="1">
          <mxGeometry x="350" y="100" width="20" height="20" as="geometry" />
        </mxCell>
        <mxCell id="h1YghE9YzMKjcITLDNeb-91" value="" style="html=1;shape=mxgraph.electrical.electro-mechanical.pushbutton;aspect=fixed;elSwitchState=off;" parent="1" vertex="1">
          <mxGeometry x="240" y="169.99999999999997" width="95" height="25.34" as="geometry" />
        </mxCell>
        <mxCell id="h1YghE9YzMKjcITLDNeb-92" value="" style="pointerEvents=1;fillColor=strokeColor;verticalLabelPosition=bottom;shadow=0;dashed=0;align=center;html=1;verticalAlign=top;shape=mxgraph.electrical.diodes.diode;rotation=0;direction=east;" parent="1" vertex="1">
          <mxGeometry x="320" y="180" width="40" height="20" as="geometry" />
        </mxCell>
        <mxCell id="h1YghE9YzMKjcITLDNeb-94" value="" style="shape=waypoint;sketch=0;fillStyle=solid;size=6;pointerEvents=1;points=[];fillColor=none;resizable=0;rotatable=0;perimeter=centerPerimeter;snapToPoint=1;" parent="1" vertex="1">
          <mxGeometry x="230" y="220" width="20" height="20" as="geometry" />
        </mxCell>
        <mxCell id="h1YghE9YzMKjcITLDNeb-95" value="" style="shape=waypoint;sketch=0;fillStyle=solid;size=6;pointerEvents=1;points=[];fillColor=none;resizable=0;rotatable=0;perimeter=centerPerimeter;snapToPoint=1;" parent="1" vertex="1">
          <mxGeometry x="350" y="180" width="20" height="20" as="geometry" />
        </mxCell>
        <mxCell id="h1YghE9YzMKjcITLDNeb-101" value="" style="shape=waypoint;sketch=0;fillStyle=solid;size=6;pointerEvents=1;points=[];fillColor=none;resizable=0;rotatable=0;perimeter=centerPerimeter;snapToPoint=1;" parent="1" vertex="1">
          <mxGeometry x="350" y="260" width="20" height="20" as="geometry" />
        </mxCell>
        <mxCell id="h1YghE9YzMKjcITLDNeb-107" value="" style="shape=waypoint;sketch=0;fillStyle=solid;size=6;pointerEvents=1;points=[];fillColor=none;resizable=0;rotatable=0;perimeter=centerPerimeter;snapToPoint=1;" parent="1" vertex="1">
          <mxGeometry x="509.99999999999994" y="100" width="20" height="20" as="geometry" />
        </mxCell>
        <mxCell id="h1YghE9YzMKjcITLDNeb-113" value="" style="shape=waypoint;sketch=0;fillStyle=solid;size=6;pointerEvents=1;points=[];fillColor=none;resizable=0;rotatable=0;perimeter=centerPerimeter;snapToPoint=1;" parent="1" vertex="1">
          <mxGeometry x="509.99999999999994" y="180" width="20" height="20" as="geometry" />
        </mxCell>
        <mxCell id="h1YghE9YzMKjcITLDNeb-119" value="" style="shape=waypoint;sketch=0;fillStyle=solid;size=6;pointerEvents=1;points=[];fillColor=none;resizable=0;rotatable=0;perimeter=centerPerimeter;snapToPoint=1;" parent="1" vertex="1">
          <mxGeometry x="509.99999999999994" y="260" width="20" height="20" as="geometry" />
        </mxCell>
        <mxCell id="h1YghE9YzMKjcITLDNeb-121" value="GPIO4" style="rounded=1;whiteSpace=wrap;html=1;" parent="1" vertex="1">
          <mxGeometry x="479.34000000000003" y="30" width="80" height="20" as="geometry" />
        </mxCell>
        <mxCell id="h1YghE9YzMKjcITLDNeb-140" value="" style="shape=waypoint;sketch=0;fillStyle=solid;size=6;pointerEvents=1;points=[];fillColor=none;resizable=0;rotatable=0;perimeter=centerPerimeter;snapToPoint=1;" parent="1" vertex="1">
          <mxGeometry x="670" y="100" width="20" height="20" as="geometry" />
        </mxCell>
        <mxCell id="h1YghE9YzMKjcITLDNeb-145" value="" style="shape=waypoint;sketch=0;fillStyle=solid;size=6;pointerEvents=1;points=[];fillColor=none;resizable=0;rotatable=0;perimeter=centerPerimeter;snapToPoint=1;" parent="1" vertex="1">
          <mxGeometry x="670" y="180" width="20" height="20" as="geometry" />
        </mxCell>
        <mxCell id="h1YghE9YzMKjcITLDNeb-149" value="" style="shape=waypoint;sketch=0;fillStyle=solid;size=6;pointerEvents=1;points=[];fillColor=none;resizable=0;rotatable=0;perimeter=centerPerimeter;snapToPoint=1;" parent="1" vertex="1">
          <mxGeometry x="670" y="260" width="20" height="20" as="geometry" />
        </mxCell>
        <mxCell id="h1YghE9YzMKjcITLDNeb-153" value="" style="endArrow=none;html=1;rounded=0;exitX=1;exitY=0.5;exitDx=0;exitDy=0;" parent="1" target="qvpBIrmDKc72IDKi6VH0-79" edge="1">
          <mxGeometry width="50" height="50" relative="1" as="geometry">
            <mxPoint x="160" y="150" as="sourcePoint" />
            <mxPoint x="260" y="150" as="targetPoint" />
          </mxGeometry>
        </mxCell>
        <mxCell id="qvpBIrmDKc72IDKi6VH0-79" value="GPIO0" style="rounded=1;whiteSpace=wrap;html=1;" parent="1" vertex="1">
          <mxGeometry x="120" y="140" width="80" height="20" as="geometry" />
        </mxCell>
        <mxCell id="h1YghE9YzMKjcITLDNeb-154" value="GPIO1" style="rounded=1;whiteSpace=wrap;html=1;" parent="1" vertex="1">
          <mxGeometry x="120" y="220" width="80" height="20" as="geometry" />
        </mxCell>
        <mxCell id="h1YghE9YzMKjcITLDNeb-155" value="GPIO2" style="rounded=1;whiteSpace=wrap;html=1;" parent="1" vertex="1">
          <mxGeometry x="120" y="300" width="80" height="20" as="geometry" />
        </mxCell>
        <mxCell id="h1YghE9YzMKjcITLDNeb-156" value="" style="endArrow=none;html=1;rounded=0;entryX=0.5;entryY=1;entryDx=0;entryDy=0;exitX=0.55;exitY=0.05;exitDx=0;exitDy=0;exitPerimeter=0;" parent="1" source="h1YghE9YzMKjcITLDNeb-107" target="h1YghE9YzMKjcITLDNeb-121" edge="1">
          <mxGeometry width="50" height="50" relative="1" as="geometry">
            <mxPoint x="530" y="220" as="sourcePoint" />
            <mxPoint x="580" y="170" as="targetPoint" />
          </mxGeometry>
        </mxCell>
        <mxCell id="h1YghE9YzMKjcITLDNeb-157" value="" style="endArrow=none;html=1;rounded=0;entryX=0.017;entryY=0.575;entryDx=0;entryDy=0;entryPerimeter=0;exitX=1;exitY=0.5;exitDx=0;exitDy=0;" parent="1" source="h1YghE9YzMKjcITLDNeb-154" target="h1YghE9YzMKjcITLDNeb-94" edge="1">
          <mxGeometry width="50" height="50" relative="1" as="geometry">
            <mxPoint x="260" y="280" as="sourcePoint" />
            <mxPoint x="310" y="230" as="targetPoint" />
          </mxGeometry>
        </mxCell>
        <mxCell id="h1YghE9YzMKjcITLDNeb-158" value="" style="endArrow=none;html=1;rounded=0;exitX=1;exitY=0.5;exitDx=0;exitDy=0;entryX=0.05;entryY=0.575;entryDx=0;entryDy=0;entryPerimeter=0;" parent="1" source="h1YghE9YzMKjcITLDNeb-155" edge="1">
          <mxGeometry width="50" height="50" relative="1" as="geometry">
            <mxPoint x="260" y="280" as="sourcePoint" />
            <mxPoint x="260" y="310" as="targetPoint" />
          </mxGeometry>
        </mxCell>
        <mxCell id="h1YghE9YzMKjcITLDNeb-159" value="" style="endArrow=none;html=1;rounded=0;entryX=0.52;entryY=1.004;entryDx=0;entryDy=0;entryPerimeter=0;exitX=0.562;exitY=0.075;exitDx=0;exitDy=0;exitPerimeter=0;" parent="1" source="h1YghE9YzMKjcITLDNeb-95" target="qvpBIrmDKc72IDKi6VH0-14" edge="1">
          <mxGeometry width="50" height="50" relative="1" as="geometry">
            <mxPoint x="330" y="220" as="sourcePoint" />
            <mxPoint x="380" y="170" as="targetPoint" />
          </mxGeometry>
        </mxCell>
        <mxCell id="h1YghE9YzMKjcITLDNeb-160" value="" style="endArrow=none;html=1;rounded=0;entryX=0.632;entryY=0.075;entryDx=0;entryDy=0;entryPerimeter=0;exitX=0.463;exitY=0.962;exitDx=0;exitDy=0;exitPerimeter=0;" parent="1" source="h1YghE9YzMKjcITLDNeb-95" target="h1YghE9YzMKjcITLDNeb-101" edge="1">
          <mxGeometry width="50" height="50" relative="1" as="geometry">
            <mxPoint x="330" y="220" as="sourcePoint" />
            <mxPoint x="380" y="170" as="targetPoint" />
          </mxGeometry>
        </mxCell>
        <mxCell id="h1YghE9YzMKjcITLDNeb-161" value="" style="endArrow=none;html=1;rounded=0;entryX=0.92;entryY=0.56;entryDx=0;entryDy=0;entryPerimeter=0;exitX=0.1;exitY=0.58;exitDx=0;exitDy=0;exitPerimeter=0;" parent="1" target="qvpBIrmDKc72IDKi6VH0-86" edge="1">
          <mxGeometry width="50" height="50" relative="1" as="geometry">
            <mxPoint x="420" y="150" as="sourcePoint" />
            <mxPoint x="430" y="180" as="targetPoint" />
          </mxGeometry>
        </mxCell>
        <mxCell id="h1YghE9YzMKjcITLDNeb-163" value="" style="endArrow=none;html=1;rounded=0;entryX=0.06;entryY=0.64;entryDx=0;entryDy=0;entryPerimeter=0;exitX=1;exitY=0.42;exitDx=0;exitDy=0;exitPerimeter=0;" parent="1" target="SYX5ZtelycjpkAAEB35m-35" edge="1">
          <mxGeometry width="50" height="50" relative="1" as="geometry">
            <mxPoint x="420" y="150" as="sourcePoint" />
            <mxPoint x="580" y="150" as="targetPoint" />
          </mxGeometry>
        </mxCell>
        <mxCell id="h1YghE9YzMKjcITLDNeb-164" value="" style="endArrow=none;html=1;rounded=0;exitX=0.98;exitY=0.68;exitDx=0;exitDy=0;exitPerimeter=0;entryX=0;entryY=0.68;entryDx=0;entryDy=0;entryPerimeter=0;" parent="1" source="h1YghE9YzMKjcITLDNeb-94" edge="1">
          <mxGeometry width="50" height="50" relative="1" as="geometry">
            <mxPoint x="380" y="220" as="sourcePoint" />
            <mxPoint x="420" y="230" as="targetPoint" />
          </mxGeometry>
        </mxCell>
        <mxCell id="h1YghE9YzMKjcITLDNeb-165" value="" style="endArrow=none;html=1;rounded=0;exitX=1.04;exitY=0.6;exitDx=0;exitDy=0;exitPerimeter=0;entryX=0;entryY=0.68;entryDx=0;entryDy=0;entryPerimeter=0;" parent="1" target="SYX5ZtelycjpkAAEB35m-39" edge="1">
          <mxGeometry width="50" height="50" relative="1" as="geometry">
            <mxPoint x="420" y="230" as="sourcePoint" />
            <mxPoint x="580" y="230" as="targetPoint" />
          </mxGeometry>
        </mxCell>
        <mxCell id="h1YghE9YzMKjcITLDNeb-166" value="" style="endArrow=none;html=1;rounded=0;exitX=0.96;exitY=0.64;exitDx=0;exitDy=0;exitPerimeter=0;entryX=0.02;entryY=0.54;entryDx=0;entryDy=0;entryPerimeter=0;" parent="1" edge="1">
          <mxGeometry width="50" height="50" relative="1" as="geometry">
            <mxPoint x="260" y="310" as="sourcePoint" />
            <mxPoint x="420" y="310" as="targetPoint" />
          </mxGeometry>
        </mxCell>
        <mxCell id="h1YghE9YzMKjcITLDNeb-167" value="" style="endArrow=none;html=1;rounded=0;exitX=0.98;exitY=0.46;exitDx=0;exitDy=0;exitPerimeter=0;entryX=-0.06;entryY=0.58;entryDx=0;entryDy=0;entryPerimeter=0;" parent="1" target="SYX5ZtelycjpkAAEB35m-43" edge="1">
          <mxGeometry width="50" height="50" relative="1" as="geometry">
            <mxPoint x="420" y="310" as="sourcePoint" />
            <mxPoint x="580" y="310" as="targetPoint" />
          </mxGeometry>
        </mxCell>
        <mxCell id="h1YghE9YzMKjcITLDNeb-168" value="" style="endArrow=none;html=1;rounded=0;entryX=0.5;entryY=1;entryDx=0;entryDy=0;exitX=0.62;exitY=0;exitDx=0;exitDy=0;exitPerimeter=0;" parent="1" source="h1YghE9YzMKjcITLDNeb-140" target="qvpBIrmDKc72IDKi6VH0-84" edge="1">
          <mxGeometry width="50" height="50" relative="1" as="geometry">
            <mxPoint x="470" y="180" as="sourcePoint" />
            <mxPoint x="520" y="130" as="targetPoint" />
          </mxGeometry>
        </mxCell>
        <mxCell id="h1YghE9YzMKjcITLDNeb-169" value="" style="endArrow=none;html=1;rounded=0;entryX=0.52;entryY=1;entryDx=0;entryDy=0;entryPerimeter=0;exitX=0.54;exitY=0.08;exitDx=0;exitDy=0;exitPerimeter=0;" parent="1" source="h1YghE9YzMKjcITLDNeb-145" target="h1YghE9YzMKjcITLDNeb-140" edge="1">
          <mxGeometry width="50" height="50" relative="1" as="geometry">
            <mxPoint x="470" y="180" as="sourcePoint" />
            <mxPoint x="520" y="130" as="targetPoint" />
          </mxGeometry>
        </mxCell>
        <mxCell id="h1YghE9YzMKjcITLDNeb-170" value="" style="endArrow=none;html=1;rounded=0;entryX=0.6;entryY=0.9;entryDx=0;entryDy=0;entryPerimeter=0;exitX=0.52;exitY=0.06;exitDx=0;exitDy=0;exitPerimeter=0;" parent="1" source="h1YghE9YzMKjcITLDNeb-113" target="h1YghE9YzMKjcITLDNeb-107" edge="1">
          <mxGeometry width="50" height="50" relative="1" as="geometry">
            <mxPoint x="470" y="230" as="sourcePoint" />
            <mxPoint x="520" y="180" as="targetPoint" />
          </mxGeometry>
        </mxCell>
        <mxCell id="h1YghE9YzMKjcITLDNeb-171" value="" style="endArrow=none;html=1;rounded=0;exitX=0.46;exitY=-0.02;exitDx=0;exitDy=0;exitPerimeter=0;entryX=0.58;entryY=0.98;entryDx=0;entryDy=0;entryPerimeter=0;" parent="1" source="h1YghE9YzMKjcITLDNeb-119" target="h1YghE9YzMKjcITLDNeb-113" edge="1">
          <mxGeometry width="50" height="50" relative="1" as="geometry">
            <mxPoint x="470" y="230" as="sourcePoint" />
            <mxPoint x="540" y="190" as="targetPoint" />
          </mxGeometry>
        </mxCell>
        <mxCell id="h1YghE9YzMKjcITLDNeb-172" value="" style="endArrow=none;html=1;rounded=0;entryX=0.533;entryY=1.15;entryDx=0;entryDy=0;entryPerimeter=0;exitX=0.683;exitY=-0.033;exitDx=0;exitDy=0;exitPerimeter=0;" parent="1" source="h1YghE9YzMKjcITLDNeb-149" target="h1YghE9YzMKjcITLDNeb-145" edge="1">
          <mxGeometry width="50" height="50" relative="1" as="geometry">
            <mxPoint x="580" y="230" as="sourcePoint" />
            <mxPoint x="630" y="180" as="targetPoint" />
          </mxGeometry>
        </mxCell>
        <mxCell id="h1YghE9YzMKjcITLDNeb-173" value="&lt;div&gt;Rows&lt;/div&gt;" style="text;html=1;align=center;verticalAlign=middle;whiteSpace=wrap;rounded=0;" parent="1" vertex="1">
          <mxGeometry x="130" y="95" width="60" height="30" as="geometry" />
        </mxCell>
        <mxCell id="h1YghE9YzMKjcITLDNeb-174" value="&lt;div&gt;Columns&lt;/div&gt;&lt;div&gt;(input pull up) they read, if low a key is pressed&lt;br&gt;&lt;/div&gt;" style="text;html=1;align=center;verticalAlign=middle;whiteSpace=wrap;rounded=0;" parent="1" vertex="1">
          <mxGeometry x="160" y="17.5" width="160" height="45" as="geometry" />
        </mxCell>
        <mxCell id="SYX5ZtelycjpkAAEB35m-1" value="" style="endArrow=none;html=1;rounded=0;exitX=0;exitY=0.8;exitDx=0;exitDy=0;entryX=0.476;entryY=0.068;entryDx=0;entryDy=0;entryPerimeter=0;" edge="1" parent="1" source="qvpBIrmDKc72IDKi6VH0-1" target="qvpBIrmDKc72IDKi6VH0-86">
          <mxGeometry width="50" height="50" relative="1" as="geometry">
            <mxPoint x="270" y="140" as="sourcePoint" />
            <mxPoint x="320" y="90" as="targetPoint" />
          </mxGeometry>
        </mxCell>
        <mxCell id="SYX5ZtelycjpkAAEB35m-3" value="" style="endArrow=none;html=1;rounded=0;entryX=0;entryY=0.8;entryDx=0;entryDy=0;exitX=0.54;exitY=0.32;exitDx=0;exitDy=0;exitPerimeter=0;" edge="1" parent="1" source="h1YghE9YzMKjcITLDNeb-94" target="h1YghE9YzMKjcITLDNeb-91">
          <mxGeometry width="50" height="50" relative="1" as="geometry">
            <mxPoint x="370" y="210" as="sourcePoint" />
            <mxPoint x="420" y="160" as="targetPoint" />
          </mxGeometry>
        </mxCell>
        <mxCell id="SYX5ZtelycjpkAAEB35m-17" value="" style="html=1;shape=mxgraph.electrical.electro-mechanical.pushbutton;aspect=fixed;elSwitchState=off;" vertex="1" parent="1">
          <mxGeometry x="240" y="249.99999999999997" width="95" height="25.34" as="geometry" />
        </mxCell>
        <mxCell id="SYX5ZtelycjpkAAEB35m-18" value="" style="pointerEvents=1;fillColor=strokeColor;verticalLabelPosition=bottom;shadow=0;dashed=0;align=center;html=1;verticalAlign=top;shape=mxgraph.electrical.diodes.diode;rotation=0;direction=east;" vertex="1" parent="1">
          <mxGeometry x="320" y="260" width="40" height="20" as="geometry" />
        </mxCell>
        <mxCell id="SYX5ZtelycjpkAAEB35m-19" value="" style="shape=waypoint;sketch=0;fillStyle=solid;size=6;pointerEvents=1;points=[];fillColor=none;resizable=0;rotatable=0;perimeter=centerPerimeter;snapToPoint=1;" vertex="1" parent="1">
          <mxGeometry x="230" y="300" width="20" height="20" as="geometry" />
        </mxCell>
        <mxCell id="SYX5ZtelycjpkAAEB35m-20" value="" style="endArrow=none;html=1;rounded=0;entryX=0;entryY=0.8;entryDx=0;entryDy=0;exitX=0.54;exitY=0.32;exitDx=0;exitDy=0;exitPerimeter=0;" edge="1" parent="1" source="SYX5ZtelycjpkAAEB35m-19" target="SYX5ZtelycjpkAAEB35m-17">
          <mxGeometry width="50" height="50" relative="1" as="geometry">
            <mxPoint x="370" y="290" as="sourcePoint" />
            <mxPoint x="420" y="240" as="targetPoint" />
          </mxGeometry>
        </mxCell>
        <mxCell id="SYX5ZtelycjpkAAEB35m-21" value="" style="html=1;shape=mxgraph.electrical.electro-mechanical.pushbutton;aspect=fixed;elSwitchState=off;" vertex="1" parent="1">
          <mxGeometry x="400" y="249.99999999999997" width="95" height="25.34" as="geometry" />
        </mxCell>
        <mxCell id="SYX5ZtelycjpkAAEB35m-22" value="" style="pointerEvents=1;fillColor=strokeColor;verticalLabelPosition=bottom;shadow=0;dashed=0;align=center;html=1;verticalAlign=top;shape=mxgraph.electrical.diodes.diode;rotation=0;direction=east;" vertex="1" parent="1">
          <mxGeometry x="480" y="260" width="40" height="20" as="geometry" />
        </mxCell>
        <mxCell id="SYX5ZtelycjpkAAEB35m-23" value="" style="shape=waypoint;sketch=0;fillStyle=solid;size=6;pointerEvents=1;points=[];fillColor=none;resizable=0;rotatable=0;perimeter=centerPerimeter;snapToPoint=1;" vertex="1" parent="1">
          <mxGeometry x="390" y="300" width="20" height="20" as="geometry" />
        </mxCell>
        <mxCell id="SYX5ZtelycjpkAAEB35m-24" value="" style="endArrow=none;html=1;rounded=0;entryX=0;entryY=0.8;entryDx=0;entryDy=0;exitX=0.54;exitY=0.32;exitDx=0;exitDy=0;exitPerimeter=0;" edge="1" parent="1" source="SYX5ZtelycjpkAAEB35m-23" target="SYX5ZtelycjpkAAEB35m-21">
          <mxGeometry width="50" height="50" relative="1" as="geometry">
            <mxPoint x="530" y="290" as="sourcePoint" />
            <mxPoint x="580" y="240" as="targetPoint" />
          </mxGeometry>
        </mxCell>
        <mxCell id="SYX5ZtelycjpkAAEB35m-25" value="" style="html=1;shape=mxgraph.electrical.electro-mechanical.pushbutton;aspect=fixed;elSwitchState=off;" vertex="1" parent="1">
          <mxGeometry x="400" y="169.99999999999997" width="95" height="25.34" as="geometry" />
        </mxCell>
        <mxCell id="SYX5ZtelycjpkAAEB35m-26" value="" style="pointerEvents=1;fillColor=strokeColor;verticalLabelPosition=bottom;shadow=0;dashed=0;align=center;html=1;verticalAlign=top;shape=mxgraph.electrical.diodes.diode;rotation=0;direction=east;" vertex="1" parent="1">
          <mxGeometry x="480" y="180" width="40" height="20" as="geometry" />
        </mxCell>
        <mxCell id="SYX5ZtelycjpkAAEB35m-27" value="" style="shape=waypoint;sketch=0;fillStyle=solid;size=6;pointerEvents=1;points=[];fillColor=none;resizable=0;rotatable=0;perimeter=centerPerimeter;snapToPoint=1;" vertex="1" parent="1">
          <mxGeometry x="390" y="220" width="20" height="20" as="geometry" />
        </mxCell>
        <mxCell id="SYX5ZtelycjpkAAEB35m-28" value="" style="endArrow=none;html=1;rounded=0;entryX=0;entryY=0.8;entryDx=0;entryDy=0;exitX=0.54;exitY=0.32;exitDx=0;exitDy=0;exitPerimeter=0;" edge="1" parent="1" source="SYX5ZtelycjpkAAEB35m-27" target="SYX5ZtelycjpkAAEB35m-25">
          <mxGeometry width="50" height="50" relative="1" as="geometry">
            <mxPoint x="530" y="210" as="sourcePoint" />
            <mxPoint x="580" y="160" as="targetPoint" />
          </mxGeometry>
        </mxCell>
        <mxCell id="SYX5ZtelycjpkAAEB35m-29" value="" style="html=1;shape=mxgraph.electrical.electro-mechanical.pushbutton;aspect=fixed;elSwitchState=off;" vertex="1" parent="1">
          <mxGeometry x="400" y="89.99999999999997" width="95" height="25.34" as="geometry" />
        </mxCell>
        <mxCell id="SYX5ZtelycjpkAAEB35m-30" value="" style="pointerEvents=1;fillColor=strokeColor;verticalLabelPosition=bottom;shadow=0;dashed=0;align=center;html=1;verticalAlign=top;shape=mxgraph.electrical.diodes.diode;rotation=0;direction=east;" vertex="1" parent="1">
          <mxGeometry x="480" y="100" width="40" height="20" as="geometry" />
        </mxCell>
        <mxCell id="SYX5ZtelycjpkAAEB35m-31" value="" style="shape=waypoint;sketch=0;fillStyle=solid;size=6;pointerEvents=1;points=[];fillColor=none;resizable=0;rotatable=0;perimeter=centerPerimeter;snapToPoint=1;" vertex="1" parent="1">
          <mxGeometry x="390" y="140" width="20" height="20" as="geometry" />
        </mxCell>
        <mxCell id="SYX5ZtelycjpkAAEB35m-32" value="" style="endArrow=none;html=1;rounded=0;entryX=0;entryY=0.8;entryDx=0;entryDy=0;exitX=0.54;exitY=0.32;exitDx=0;exitDy=0;exitPerimeter=0;" edge="1" parent="1" source="SYX5ZtelycjpkAAEB35m-31" target="SYX5ZtelycjpkAAEB35m-29">
          <mxGeometry width="50" height="50" relative="1" as="geometry">
            <mxPoint x="530" y="130" as="sourcePoint" />
            <mxPoint x="580" y="80" as="targetPoint" />
          </mxGeometry>
        </mxCell>
        <mxCell id="SYX5ZtelycjpkAAEB35m-33" value="" style="html=1;shape=mxgraph.electrical.electro-mechanical.pushbutton;aspect=fixed;elSwitchState=off;" vertex="1" parent="1">
          <mxGeometry x="560" y="89.99999999999997" width="95" height="25.34" as="geometry" />
        </mxCell>
        <mxCell id="SYX5ZtelycjpkAAEB35m-34" value="" style="pointerEvents=1;fillColor=strokeColor;verticalLabelPosition=bottom;shadow=0;dashed=0;align=center;html=1;verticalAlign=top;shape=mxgraph.electrical.diodes.diode;rotation=0;direction=east;" vertex="1" parent="1">
          <mxGeometry x="640" y="100" width="40" height="20" as="geometry" />
        </mxCell>
        <mxCell id="SYX5ZtelycjpkAAEB35m-35" value="" style="shape=waypoint;sketch=0;fillStyle=solid;size=6;pointerEvents=1;points=[];fillColor=none;resizable=0;rotatable=0;perimeter=centerPerimeter;snapToPoint=1;" vertex="1" parent="1">
          <mxGeometry x="550" y="140" width="20" height="20" as="geometry" />
        </mxCell>
        <mxCell id="SYX5ZtelycjpkAAEB35m-36" value="" style="endArrow=none;html=1;rounded=0;entryX=0;entryY=0.8;entryDx=0;entryDy=0;exitX=0.54;exitY=0.32;exitDx=0;exitDy=0;exitPerimeter=0;" edge="1" parent="1" source="SYX5ZtelycjpkAAEB35m-35" target="SYX5ZtelycjpkAAEB35m-33">
          <mxGeometry width="50" height="50" relative="1" as="geometry">
            <mxPoint x="690" y="130" as="sourcePoint" />
            <mxPoint x="740" y="80" as="targetPoint" />
          </mxGeometry>
        </mxCell>
        <mxCell id="SYX5ZtelycjpkAAEB35m-37" value="" style="html=1;shape=mxgraph.electrical.electro-mechanical.pushbutton;aspect=fixed;elSwitchState=off;" vertex="1" parent="1">
          <mxGeometry x="560" y="169.99999999999997" width="95" height="25.34" as="geometry" />
        </mxCell>
        <mxCell id="SYX5ZtelycjpkAAEB35m-38" value="" style="pointerEvents=1;fillColor=strokeColor;verticalLabelPosition=bottom;shadow=0;dashed=0;align=center;html=1;verticalAlign=top;shape=mxgraph.electrical.diodes.diode;rotation=0;direction=east;" vertex="1" parent="1">
          <mxGeometry x="640" y="180" width="40" height="20" as="geometry" />
        </mxCell>
        <mxCell id="SYX5ZtelycjpkAAEB35m-39" value="" style="shape=waypoint;sketch=0;fillStyle=solid;size=6;pointerEvents=1;points=[];fillColor=none;resizable=0;rotatable=0;perimeter=centerPerimeter;snapToPoint=1;" vertex="1" parent="1">
          <mxGeometry x="550" y="220" width="20" height="20" as="geometry" />
        </mxCell>
        <mxCell id="SYX5ZtelycjpkAAEB35m-40" value="" style="endArrow=none;html=1;rounded=0;entryX=0;entryY=0.8;entryDx=0;entryDy=0;exitX=0.54;exitY=0.32;exitDx=0;exitDy=0;exitPerimeter=0;" edge="1" parent="1" source="SYX5ZtelycjpkAAEB35m-39" target="SYX5ZtelycjpkAAEB35m-37">
          <mxGeometry width="50" height="50" relative="1" as="geometry">
            <mxPoint x="690" y="210" as="sourcePoint" />
            <mxPoint x="740" y="160" as="targetPoint" />
          </mxGeometry>
        </mxCell>
        <mxCell id="SYX5ZtelycjpkAAEB35m-41" value="" style="html=1;shape=mxgraph.electrical.electro-mechanical.pushbutton;aspect=fixed;elSwitchState=off;" vertex="1" parent="1">
          <mxGeometry x="560" y="249.99999999999997" width="95" height="25.34" as="geometry" />
        </mxCell>
        <mxCell id="SYX5ZtelycjpkAAEB35m-42" value="" style="pointerEvents=1;fillColor=strokeColor;verticalLabelPosition=bottom;shadow=0;dashed=0;align=center;html=1;verticalAlign=top;shape=mxgraph.electrical.diodes.diode;rotation=0;direction=east;" vertex="1" parent="1">
          <mxGeometry x="640" y="260" width="40" height="20" as="geometry" />
        </mxCell>
        <mxCell id="SYX5ZtelycjpkAAEB35m-43" value="" style="shape=waypoint;sketch=0;fillStyle=solid;size=6;pointerEvents=1;points=[];fillColor=none;resizable=0;rotatable=0;perimeter=centerPerimeter;snapToPoint=1;" vertex="1" parent="1">
          <mxGeometry x="550" y="300" width="20" height="20" as="geometry" />
        </mxCell>
        <mxCell id="SYX5ZtelycjpkAAEB35m-44" value="" style="endArrow=none;html=1;rounded=0;entryX=0;entryY=0.8;entryDx=0;entryDy=0;exitX=0.54;exitY=0.32;exitDx=0;exitDy=0;exitPerimeter=0;" edge="1" parent="1" source="SYX5ZtelycjpkAAEB35m-43" target="SYX5ZtelycjpkAAEB35m-41">
          <mxGeometry width="50" height="50" relative="1" as="geometry">
            <mxPoint x="690" y="290" as="sourcePoint" />
            <mxPoint x="740" y="240" as="targetPoint" />
          </mxGeometry>
        </mxCell>
      </root>
    </mxGraphModel>
  </diagram>
</mxfile>
